STARTFONT 2.1
COMMENT Copyright (C) 1994 Aleksei Rudnev <alex@kiae.su>
COMMENT Portions Copyright (C) 1994-1995 Cronyx Ltd.
COMMENT Changes Copyright (C) 1996 by Andrey A. Chernov, Moscow, Russia.
COMMENT This software may be used, modified, copied, distributed, and sold,
COMMENT in both source and binary form provided that the copyright
COMMENT and these terms are retained. Under no circumstances is the author
COMMENT responsible for the proper functioning of this software, nor does
COMMENT the author assume any responsibility for damages incurred with its use.
COMMENT $XFree86: xc/fonts/bdf/cyrillic/koi10x16b.bdf,v 3.1 1996/09/01 12:18:59 dawes Exp $
FONT -Cronyx-Fixed-Bold-R-Normal--16-120-100-100-C-80-KOI8-R
SIZE 16 100 100
FONTBOUNDINGBOX 10 16 0 -2
STARTPROPERTIES 19
FONTNAME_REGISTRY ""
FOUNDRY "Cronyx"
FAMILY_NAME "Fixed"
WEIGHT_NAME "Bold"
SLANT "R"
SETWIDTH_NAME "Normal"
ADD_STYLE_NAME ""
PIXEL_SIZE 16
POINT_SIZE 120
RESOLUTION_X 100
RESOLUTION_Y 100
SPACING "C"
AVERAGE_WIDTH 80
CHARSET_REGISTRY "KOI8"
CHARSET_ENCODING "R"
DEFAULT_CHAR 32
FONT_DESCENT 2
FONT_ASCENT 14
COPYRIGHT "Copyright (C) 1994 Aleksei Rudnev <alex@kiae.su>, Portions Copyright (C) 1996 by Andrey A. Chernov, Moscow, Russia."
ENDPROPERTIES
CHARS 177
STARTCHAR 002B
ENCODING 10
SWIDTH 480 0
DWIDTH 8 0
BBX 10 10 0 4
BITMAP
0000
0000
0000
0000
0000
0000
0000
0000
0000
7fc0
ENDCHAR
STARTCHAR 002B
ENCODING 11
SWIDTH 480 0
DWIDTH 8 0
BBX 6 10 0 4
BITMAP
00
0c
0c
0c
0c
0c
0c
0c
0c
7c
ENDCHAR
STARTCHAR 002B
ENCODING 12
SWIDTH 480 0
DWIDTH 8 0
BBX 6 16 0 -2
BITMAP
00
00
00
00
00
00
00
00
00
7c
0c
0c
0c
0c
0c
0c
ENDCHAR
STARTCHAR 002B
ENCODING 13
SWIDTH 480 0
DWIDTH 8 0
BBX 10 16 0 -2
BITMAP
0000
0000
0000
0000
0000
0000
0000
0000
0000
0fc0
0c00
0c00
0c00
0c00
0c00
0c00
ENDCHAR
STARTCHAR 002B
ENCODING 14
SWIDTH 480 0
DWIDTH 8 0
BBX 10 10 0 4
BITMAP
0000
0c00
0c00
0c00
0c00
0c00
0c00
0c00
0c00
0fc0
ENDCHAR
STARTCHAR 002B
ENCODING 15
SWIDTH 480 0
DWIDTH 8 0
BBX 10 16 0 -2
BITMAP
0000
0c00
0c00
0c00
0c00
0c00
0c00
0c00
0c00
7fc0
0c00
0c00
0c00
0c00
0c00
0c00
ENDCHAR
STARTCHAR 002B
ENCODING 16
SWIDTH 480 0
DWIDTH 8 0
BBX 10 10 0 4
BITMAP
0000
0000
0000
0000
0000
0000
0000
0000
0000
7fc0
ENDCHAR
STARTCHAR 002B
ENCODING 17
SWIDTH 480 0
DWIDTH 8 0
BBX 10 10 0 4
BITMAP
0000
0000
0000
0000
0000
0000
0000
0000
0000
7fc0
ENDCHAR
STARTCHAR 002B
ENCODING 18
SWIDTH 480 0
DWIDTH 8 0
BBX 10 10 0 4
BITMAP
0000
0000
0000
0000
0000
0000
0000
0000
0000
7fc0
ENDCHAR
STARTCHAR 002B
ENCODING 19
SWIDTH 480 0
DWIDTH 8 0
BBX 10 10 0 4
BITMAP
0000
0000
0000
0000
0000
0000
0000
0000
0000
7fc0
ENDCHAR
STARTCHAR 002B
ENCODING 20
SWIDTH 480 0
DWIDTH 8 0
BBX 10 10 0 4
BITMAP
0000
0000
0000
0000
0000
0000
0000
0000
0000
7fc0
ENDCHAR
STARTCHAR 002B
ENCODING 21
SWIDTH 480 0
DWIDTH 8 0
BBX 10 16 0 -2
BITMAP
0000
0c00
0c00
0c00
0c00
0c00
0c00
0c00
0c00
0fc0
0c00
0c00
0c00
0c00
0c00
0c00
ENDCHAR
STARTCHAR 002B
ENCODING 22
SWIDTH 480 0
DWIDTH 8 0
BBX 6 16 0 -2
BITMAP
00
0c
0c
0c
0c
0c
0c
0c
0c
7c
0c
0c
0c
0c
0c
0c
ENDCHAR
STARTCHAR 002B
ENCODING 23
SWIDTH 480 0
DWIDTH 8 0
BBX 10 10 0 4
BITMAP
0000
0c00
0c00
0c00
0c00
0c00
0c00
0c00
0c00
7fc0
ENDCHAR
STARTCHAR 002B
ENCODING 24
SWIDTH 480 0
DWIDTH 8 0
BBX 10 16 0 -2
BITMAP
0000
0000
0000
0000
0000
0000
0000
0000
0000
7fc0
0c00
0c00
0c00
0c00
0c00
0c00
ENDCHAR
STARTCHAR 002B
ENCODING 25
SWIDTH 480 0
DWIDTH 8 0
BBX 6 16 0 -2
BITMAP
00
0c
0c
0c
0c
0c
0c
0c
0c
0c
0c
0c
0c
0c
0c
0c
ENDCHAR
STARTCHAR 0020
ENCODING 32
SWIDTH 480 0
DWIDTH 8 0
BBX 8 16 0 -2
BITMAP
00
00
00
00
00
00
00
00
00
00
00
00
00
00
00
00
ENDCHAR
STARTCHAR 0021
ENCODING 33
SWIDTH 480 0
DWIDTH 8 0
BBX 8 16 0 -2
BITMAP
00
00
00
00
0c
0c
0c
0c
0c
0c
0c
00
0c
0c
00
00
ENDCHAR
STARTCHAR 0022
ENCODING 34
SWIDTH 480 0
DWIDTH 8 0
BBX 8 16 0 -2
BITMAP
00
00
77
33
33
66
00
00
00
00
00
00
00
00
00
00
ENDCHAR
STARTCHAR 0023
ENCODING 35
SWIDTH 480 0
DWIDTH 8 0
BBX 8 16 0 -2
BITMAP
00
00
00
00
1b
1b
1b
7f
36
36
7f
6c
6c
6c
00
00
ENDCHAR
STARTCHAR 0024
ENCODING 36
SWIDTH 480 0
DWIDTH 8 0
BBX 9 16 0 -2
BITMAP
0000
0000
0000
0000
0c00
3f00
6d80
6c00
3c00
0f00
0d80
6d80
3f00
0c00
0000
0000
ENDCHAR
STARTCHAR 0025
ENCODING 37
SWIDTH 480 0
DWIDTH 8 0
BBX 9 16 0 -2
BITMAP
0000
0000
0000
0000
3180
6d80
6d00
3600
1800
1800
3700
6d80
6d80
4700
0000
0000
ENDCHAR
STARTCHAR 0026
ENCODING 38
SWIDTH 480 0
DWIDTH 8 0
BBX 9 16 0 -2
BITMAP
0000
0000
0000
0000
1e00
3300
3300
3300
1e00
3880
6d80
6700
6700
3980
0000
0000
ENDCHAR
STARTCHAR 0027
ENCODING 39
SWIDTH 480 0
DWIDTH 8 0
BBX 8 16 0 -2
BITMAP
00
00
1c
0c
0c
18
00
00
00
00
00
00
00
00
00
00
ENDCHAR
STARTCHAR 0028
ENCODING 40
SWIDTH 480 0
DWIDTH 8 0
BBX 8 16 0 -2
BITMAP
00
00
00
06
0c
0c
18
18
18
18
18
18
0c
0c
06
00
ENDCHAR
STARTCHAR 0029
ENCODING 41
SWIDTH 480 0
DWIDTH 8 0
BBX 8 16 0 -2
BITMAP
00
00
00
30
18
18
0c
0c
0c
0c
0c
0c
18
18
30
00
ENDCHAR
STARTCHAR 002A
ENCODING 42
SWIDTH 480 0
DWIDTH 8 0
BBX 9 16 0 -2
BITMAP
0000
0000
0000
0000
0000
0000
0c00
6d80
7f80
3e00
7f80
6d80
0c00
0000
0000
0000
ENDCHAR
STARTCHAR 002B
ENCODING 43
SWIDTH 480 0
DWIDTH 8 0
BBX 9 16 0 -2
BITMAP
0000
0000
0000
0000
0000
0000
0c00
0c00
0c00
7f80
0c00
0c00
0c00
0000
0000
0000
ENDCHAR
STARTCHAR 002C
ENCODING 44
SWIDTH 480 0
DWIDTH 8 0
BBX 8 16 0 -2
BITMAP
00
00
00
00
00
00
00
00
00
00
00
00
1c
0c
08
10
ENDCHAR
STARTCHAR 002D
ENCODING 45
SWIDTH 480 0
DWIDTH 8 0
BBX 8 16 0 -2
BITMAP
00
00
00
00
00
00
00
00
7e
7e
00
00
00
00
00
00
ENDCHAR
STARTCHAR 002E
ENCODING 46
SWIDTH 480 0
DWIDTH 8 0
BBX 8 16 0 -2
BITMAP
00
00
00
00
00
00
00
00
00
00
00
00
1c
1c
1c
00
ENDCHAR
STARTCHAR 002F
ENCODING 47
SWIDTH 480 0
DWIDTH 8 0
BBX 8 16 0 -2
BITMAP
00
00
00
00
03
03
06
0c
0c
18
18
30
60
60
00
00
ENDCHAR
STARTCHAR 0030
ENCODING 48
SWIDTH 480 0
DWIDTH 8 0
BBX 8 16 0 -2
BITMAP
00
00
00
00
1c
36
63
63
63
63
63
63
36
1c
00
00
ENDCHAR
STARTCHAR 0031
ENCODING 49
SWIDTH 480 0
DWIDTH 8 0
BBX 8 16 0 -2
BITMAP
00
00
00
00
0c
1c
3c
0c
0c
0c
0c
0c
0c
3f
00
00
ENDCHAR
STARTCHAR 0032
ENCODING 50
SWIDTH 480 0
DWIDTH 8 0
BBX 8 16 0 -2
BITMAP
00
00
00
00
3e
63
63
03
0e
18
30
60
60
7f
00
00
ENDCHAR
STARTCHAR 0033
ENCODING 51
SWIDTH 480 0
DWIDTH 8 0
BBX 8 16 0 -2
BITMAP
00
00
00
00
7f
63
06
0c
1e
03
03
63
63
3e
00
00
ENDCHAR
STARTCHAR 0034
ENCODING 52
SWIDTH 480 0
DWIDTH 8 0
BBX 8 16 0 -2
BITMAP
00
00
00
00
06
0e
1e
36
66
66
7f
06
06
06
00
00
ENDCHAR
STARTCHAR 0035
ENCODING 53
SWIDTH 480 0
DWIDTH 8 0
BBX 8 16 0 -2
BITMAP
00
00
00
00
7e
60
60
60
7e
03
03
03
63
3e
00
00
ENDCHAR
STARTCHAR 0036
ENCODING 54
SWIDTH 480 0
DWIDTH 8 0
BBX 8 16 0 -2
BITMAP
00
00
00
00
1e
30
60
60
7e
63
63
63
63
3e
00
00
ENDCHAR
STARTCHAR 0037
ENCODING 55
SWIDTH 480 0
DWIDTH 8 0
BBX 8 16 0 -2
BITMAP
00
00
00
00
7f
03
03
06
06
06
0c
0c
0c
0c
00
00
ENDCHAR
STARTCHAR 0038
ENCODING 56
SWIDTH 480 0
DWIDTH 8 0
BBX 8 16 0 -2
BITMAP
00
00
00
00
3e
63
63
63
3e
63
63
63
63
3e
00
00
ENDCHAR
STARTCHAR 0039
ENCODING 57
SWIDTH 480 0
DWIDTH 8 0
BBX 8 16 0 -2
BITMAP
00
00
00
00
3e
63
63
63
3f
03
03
03
07
3c
00
00
ENDCHAR
STARTCHAR 003A
ENCODING 58
SWIDTH 480 0
DWIDTH 8 0
BBX 8 16 0 -2
BITMAP
00
00
00
00
00
00
1c
1c
00
00
00
1c
1c
00
00
00
ENDCHAR
STARTCHAR 003B
ENCODING 59
SWIDTH 480 0
DWIDTH 8 0
BBX 8 16 0 -2
BITMAP
00
00
00
00
00
00
1c
1c
00
00
00
1c
0c
0c
18
00
ENDCHAR
STARTCHAR 003C
ENCODING 60
SWIDTH 480 0
DWIDTH 8 0
BBX 8 16 0 -2
BITMAP
00
00
00
00
00
03
06
0c
18
30
18
0c
06
03
00
00
ENDCHAR
STARTCHAR 003D
ENCODING 61
SWIDTH 480 0
DWIDTH 8 0
BBX 8 16 0 -2
BITMAP
00
00
00
00
00
00
7e
7e
00
00
7e
7e
00
00
00
00
ENDCHAR
STARTCHAR 003E
ENCODING 62
SWIDTH 480 0
DWIDTH 8 0
BBX 8 16 0 -2
BITMAP
00
00
00
00
00
60
30
18
0c
06
0c
18
30
60
00
00
ENDCHAR
STARTCHAR 003F
ENCODING 63
SWIDTH 480 0
DWIDTH 8 0
BBX 8 16 0 -2
BITMAP
00
00
00
00
3e
63
63
03
06
0c
0c
00
0c
0c
00
00
ENDCHAR
STARTCHAR 0040
ENCODING 64
SWIDTH 480 0
DWIDTH 8 0
BBX 8 16 0 -2
BITMAP
00
00
00
00
1e
23
4b
57
53
53
53
4f
20
1f
00
00
ENDCHAR
STARTCHAR 0041
ENCODING 65
SWIDTH 480 0
DWIDTH 8 0
BBX 8 16 0 -2
BITMAP
00
00
00
00
1c
36
36
63
63
7f
63
63
63
63
00
00
ENDCHAR
STARTCHAR 0042
ENCODING 66
SWIDTH 480 0
DWIDTH 8 0
BBX 8 16 0 -2
BITMAP
00
00
00
00
7c
63
63
63
7e
63
63
63
63
7e
00
00
ENDCHAR
STARTCHAR 0043
ENCODING 67
SWIDTH 480 0
DWIDTH 8 0
BBX 8 16 0 -2
BITMAP
00
00
00
00
3e
63
63
60
60
60
60
63
63
3e
00
00
ENDCHAR
STARTCHAR 0044
ENCODING 68
SWIDTH 480 0
DWIDTH 8 0
BBX 8 16 0 -2
BITMAP
00
00
00
00
7c
66
63
63
63
63
63
63
66
7c
00
00
ENDCHAR
STARTCHAR 0045
ENCODING 69
SWIDTH 480 0
DWIDTH 8 0
BBX 8 16 0 -2
BITMAP
00
00
00
00
7f
60
60
60
7e
60
60
60
60
7f
00
00
ENDCHAR
STARTCHAR 0046
ENCODING 70
SWIDTH 480 0
DWIDTH 8 0
BBX 8 16 0 -2
BITMAP
00
00
00
00
7f
60
60
60
7e
60
60
60
60
60
00
00
ENDCHAR
STARTCHAR 0047
ENCODING 71
SWIDTH 480 0
DWIDTH 8 0
BBX 8 16 0 -2
BITMAP
00
00
00
00
3e
63
63
60
60
6f
63
63
67
3b
00
00
ENDCHAR
STARTCHAR 0048
ENCODING 72
SWIDTH 480 0
DWIDTH 8 0
BBX 8 16 0 -2
BITMAP
00
00
00
00
63
63
63
63
7f
63
63
63
63
63
00
00
ENDCHAR
STARTCHAR 0049
ENCODING 73
SWIDTH 480 0
DWIDTH 8 0
BBX 8 16 0 -2
BITMAP
00
00
00
00
3f
0c
0c
0c
0c
0c
0c
0c
0c
3f
00
00
ENDCHAR
STARTCHAR 004A
ENCODING 74
SWIDTH 480 0
DWIDTH 8 0
BBX 9 16 0 -2
BITMAP
0000
0000
0000
0000
1f80
0600
0600
0600
0600
0600
0600
6600
6600
3c00
0000
0000
ENDCHAR
STARTCHAR 004B
ENCODING 75
SWIDTH 480 0
DWIDTH 8 0
BBX 8 16 0 -2
BITMAP
00
00
00
00
63
66
6c
78
70
70
78
6c
66
63
00
00
ENDCHAR
STARTCHAR 004C
ENCODING 76
SWIDTH 480 0
DWIDTH 8 0
BBX 8 16 0 -2
BITMAP
00
00
00
00
60
60
60
60
60
60
60
60
60
7f
00
00
ENDCHAR
STARTCHAR 004D
ENCODING 77
SWIDTH 480 0
DWIDTH 8 0
BBX 8 16 0 -2
BITMAP
00
00
00
00
63
63
77
7f
6b
63
63
63
63
63
00
00
ENDCHAR
STARTCHAR 004E
ENCODING 78
SWIDTH 480 0
DWIDTH 8 0
BBX 8 16 0 -2
BITMAP
00
00
00
00
63
63
73
7b
7b
6f
6f
67
67
63
00
00
ENDCHAR
STARTCHAR 004F
ENCODING 79
SWIDTH 480 0
DWIDTH 8 0
BBX 8 16 0 -2
BITMAP
00
00
00
00
3e
63
63
63
63
63
63
63
63
3e
00
00
ENDCHAR
STARTCHAR 0050
ENCODING 80
SWIDTH 480 0
DWIDTH 8 0
BBX 8 16 0 -2
BITMAP
00
00
00
00
7e
63
63
63
7e
60
60
60
60
60
00
00
ENDCHAR
STARTCHAR 0051
ENCODING 81
SWIDTH 480 0
DWIDTH 8 0
BBX 9 16 0 -2
BITMAP
0000
0000
0000
0000
3e00
6300
6300
6300
6300
6300
6300
7b00
6700
3e00
0380
0000
ENDCHAR
STARTCHAR 0052
ENCODING 82
SWIDTH 480 0
DWIDTH 8 0
BBX 8 16 0 -2
BITMAP
00
00
00
00
7e
63
63
63
7e
6c
66
66
63
63
00
00
ENDCHAR
STARTCHAR 0053
ENCODING 83
SWIDTH 480 0
DWIDTH 8 0
BBX 8 16 0 -2
BITMAP
00
00
00
00
3c
63
63
60
38
0e
03
63
63
3e
00
00
ENDCHAR
STARTCHAR 0054
ENCODING 84
SWIDTH 480 0
DWIDTH 8 0
BBX 9 16 0 -2
BITMAP
0000
0000
0000
0000
7f80
0c00
0c00
0c00
0c00
0c00
0c00
0c00
0c00
0c00
0000
0000
ENDCHAR
STARTCHAR 0055
ENCODING 85
SWIDTH 480 0
DWIDTH 8 0
BBX 8 16 0 -2
BITMAP
00
00
00
00
63
63
63
63
63
63
63
63
63
3e
00
00
ENDCHAR
STARTCHAR 0056
ENCODING 86
SWIDTH 480 0
DWIDTH 8 0
BBX 10 16 0 -2
BITMAP
0000
0000
0000
0000
60c0
71c0
71c0
3b80
3b80
1b00
1b00
0e00
0e00
0400
0000
0000
ENDCHAR
STARTCHAR 0057
ENCODING 87
SWIDTH 480 0
DWIDTH 8 0
BBX 8 16 0 -2
BITMAP
00
00
00
00
63
63
63
63
6b
7f
77
77
63
63
00
00
ENDCHAR
STARTCHAR 0058
ENCODING 88
SWIDTH 480 0
DWIDTH 8 0
BBX 8 16 0 -2
BITMAP
00
00
00
00
63
63
36
36
1c
1c
36
36
63
63
00
00
ENDCHAR
STARTCHAR 0059
ENCODING 89
SWIDTH 480 0
DWIDTH 8 0
BBX 9 16 0 -2
BITMAP
0000
0000
0000
0000
6180
7380
3300
3300
1e00
0c00
0c00
0c00
0c00
0c00
0000
0000
ENDCHAR
STARTCHAR 005A
ENCODING 90
SWIDTH 480 0
DWIDTH 8 0
BBX 8 16 0 -2
BITMAP
00
00
00
00
7f
03
03
06
0c
18
30
60
60
7f
00
00
ENDCHAR
STARTCHAR 005B
ENCODING 91
SWIDTH 480 0
DWIDTH 8 0
BBX 8 16 0 -2
BITMAP
00
00
00
0f
0c
0c
0c
0c
0c
0c
0c
0c
0c
0c
0f
00
ENDCHAR
STARTCHAR 005C
ENCODING 92
SWIDTH 480 0
DWIDTH 8 0
BBX 8 16 0 -2
BITMAP
00
00
00
00
60
70
30
18
18
0c
0c
06
03
03
00
00
ENDCHAR
STARTCHAR 005D
ENCODING 93
SWIDTH 480 0
DWIDTH 8 0
BBX 8 16 0 -2
BITMAP
00
00
00
78
18
18
18
18
18
18
18
18
18
18
78
00
ENDCHAR
STARTCHAR 005E
ENCODING 94
SWIDTH 480 0
DWIDTH 8 0
BBX 8 16 0 -2
BITMAP
00
00
1c
36
63
00
00
00
00
00
00
00
00
00
00
00
ENDCHAR
STARTCHAR 005F
ENCODING 95
SWIDTH 480 0
DWIDTH 8 0
BBX 8 16 0 -2
BITMAP
00
00
00
00
00
00
00
00
00
00
00
00
00
7f
7f
00
ENDCHAR
STARTCHAR 0060
ENCODING 96
SWIDTH 480 0
DWIDTH 8 0
BBX 8 16 0 -2
BITMAP
00
00
18
18
1c
0c
00
00
00
00
00
00
00
00
00
00
ENDCHAR
STARTCHAR 0061
ENCODING 97
SWIDTH 480 0
DWIDTH 8 0
BBX 8 16 0 -2
BITMAP
00
00
00
00
00
00
3e
63
03
3f
63
63
67
3b
00
00
ENDCHAR
STARTCHAR 0062
ENCODING 98
SWIDTH 480 0
DWIDTH 8 0
BBX 8 16 0 -2
BITMAP
00
00
00
60
60
60
6e
73
63
63
63
63
73
6e
00
00
ENDCHAR
STARTCHAR 0063
ENCODING 99
SWIDTH 480 0
DWIDTH 8 0
BBX 8 16 0 -2
BITMAP
00
00
00
00
00
00
3e
63
60
60
60
61
63
3e
00
00
ENDCHAR
STARTCHAR 0064
ENCODING 100
SWIDTH 480 0
DWIDTH 8 0
BBX 8 16 0 -2
BITMAP
00
00
00
03
03
03
3b
6f
63
63
63
63
6f
3b
00
00
ENDCHAR
STARTCHAR 0065
ENCODING 101
SWIDTH 480 0
DWIDTH 8 0
BBX 8 16 0 -2
BITMAP
00
00
00
00
00
00
3e
63
63
7f
60
60
63
3e
00
00
ENDCHAR
STARTCHAR 0066
ENCODING 102
SWIDTH 480 0
DWIDTH 8 0
BBX 8 16 0 -2
BITMAP
00
00
00
0e
18
18
18
7e
18
18
18
18
18
18
00
00
ENDCHAR
STARTCHAR 0067
ENCODING 103
SWIDTH 480 0
DWIDTH 8 0
BBX 8 16 0 -2
BITMAP
00
00
00
00
00
03
3b
66
66
66
3c
20
3e
63
63
3e
ENDCHAR
STARTCHAR 0068
ENCODING 104
SWIDTH 480 0
DWIDTH 8 0
BBX 8 16 0 -2
BITMAP
00
00
00
60
60
60
6e
73
63
63
63
63
63
63
00
00
ENDCHAR
STARTCHAR 0069
ENCODING 105
SWIDTH 480 0
DWIDTH 8 0
BBX 8 16 0 -2
BITMAP
00
00
00
0c
0c
00
1c
0c
0c
0c
0c
0c
0c
3f
00
00
ENDCHAR
STARTCHAR 006A
ENCODING 106
SWIDTH 480 0
DWIDTH 8 0
BBX 8 16 0 -2
BITMAP
00
00
00
06
06
00
0e
06
06
06
06
06
06
06
4c
38
ENDCHAR
STARTCHAR 006B
ENCODING 107
SWIDTH 480 0
DWIDTH 8 0
BBX 8 16 0 -2
BITMAP
00
00
00
00
60
60
66
6c
78
70
78
6c
66
63
00
00
ENDCHAR
STARTCHAR 006C
ENCODING 108
SWIDTH 480 0
DWIDTH 8 0
BBX 8 16 0 -2
BITMAP
00
00
00
00
1c
0c
0c
0c
0c
0c
0c
0c
0c
3f
00
00
ENDCHAR
STARTCHAR 006D
ENCODING 109
SWIDTH 480 0
DWIDTH 8 0
BBX 9 16 0 -2
BITMAP
0000
0000
0000
0000
0000
0000
7700
6d80
6d80
6d80
6d80
6d80
6d80
6d80
0000
0000
ENDCHAR
STARTCHAR 006E
ENCODING 110
SWIDTH 480 0
DWIDTH 8 0
BBX 8 16 0 -2
BITMAP
00
00
00
00
00
00
6e
73
63
63
63
63
63
63
00
00
ENDCHAR
STARTCHAR 006F
ENCODING 111
SWIDTH 480 0
DWIDTH 8 0
BBX 8 16 0 -2
BITMAP
00
00
00
00
00
00
3e
63
63
63
63
63
63
3e
00
00
ENDCHAR
STARTCHAR 0070
ENCODING 112
SWIDTH 480 0
DWIDTH 8 0
BBX 8 16 0 -2
BITMAP
00
00
00
00
00
00
6e
73
63
63
63
63
73
6e
60
60
ENDCHAR
STARTCHAR 0071
ENCODING 113
SWIDTH 480 0
DWIDTH 8 0
BBX 8 16 0 -2
BITMAP
00
00
00
00
00
00
3b
6f
63
63
63
63
6f
3b
03
03
ENDCHAR
STARTCHAR 0072
ENCODING 114
SWIDTH 480 0
DWIDTH 8 0
BBX 8 16 0 -2
BITMAP
00
00
00
00
00
00
6e
73
63
60
60
60
60
60
00
00
ENDCHAR
STARTCHAR 0073
ENCODING 115
SWIDTH 480 0
DWIDTH 8 0
BBX 8 16 0 -2
BITMAP
00
00
00
00
00
00
3e
63
60
38
0e
03
63
3e
00
00
ENDCHAR
STARTCHAR 0074
ENCODING 116
SWIDTH 480 0
DWIDTH 8 0
BBX 8 16 0 -2
BITMAP
00
00
00
00
18
18
7e
18
18
18
18
18
18
0e
00
00
ENDCHAR
STARTCHAR 0075
ENCODING 117
SWIDTH 480 0
DWIDTH 8 0
BBX 8 16 0 -2
BITMAP
00
00
00
00
00
00
63
63
63
63
63
63
67
3b
00
00
ENDCHAR
STARTCHAR 0076
ENCODING 118
SWIDTH 480 0
DWIDTH 8 0
BBX 8 16 0 -2
BITMAP
00
00
00
00
00
00
63
63
63
36
36
36
1c
1c
00
00
ENDCHAR
STARTCHAR 0077
ENCODING 119
SWIDTH 480 0
DWIDTH 8 0
BBX 9 16 0 -2
BITMAP
0000
0000
0000
0000
0000
0000
6180
6d80
6d80
6d80
6d80
6d80
6d80
3700
0000
0000
ENDCHAR
STARTCHAR 0078
ENCODING 120
SWIDTH 480 0
DWIDTH 8 0
BBX 8 16 0 -2
BITMAP
00
00
00
00
00
00
63
63
36
1c
1c
36
63
63
00
00
ENDCHAR
STARTCHAR 0079
ENCODING 121
SWIDTH 480 0
DWIDTH 8 0
BBX 8 16 0 -2
BITMAP
00
00
00
00
00
00
63
63
63
63
63
37
1b
03
03
3e
ENDCHAR
STARTCHAR 007A
ENCODING 122
SWIDTH 480 0
DWIDTH 8 0
BBX 8 16 0 -2
BITMAP
00
00
00
00
00
00
7f
03
06
0c
18
30
60
7f
00
00
ENDCHAR
STARTCHAR 007B
ENCODING 123
SWIDTH 480 0
DWIDTH 8 0
BBX 8 16 0 -2
BITMAP
00
00
00
0e
18
18
0c
0c
18
18
0c
0c
18
18
0e
00
ENDCHAR
STARTCHAR 007C
ENCODING 124
SWIDTH 480 0
DWIDTH 8 0
BBX 8 16 0 -2
BITMAP
00
00
0c
0c
0c
0c
0c
0c
0c
0c
0c
0c
0c
0c
0c
0c
ENDCHAR
STARTCHAR 007D
ENCODING 125
SWIDTH 480 0
DWIDTH 8 0
BBX 8 16 0 -2
BITMAP
00
00
00
38
0c
0c
18
18
0c
0c
18
18
0c
0c
38
00
ENDCHAR
STARTCHAR 007E
ENCODING 126
SWIDTH 480 0
DWIDTH 8 0
BBX 9 16 0 -2
BITMAP
0000
0000
0000
3980
6d80
6700
0000
0000
0000
0000
0000
0000
0000
0000
0000
0000
ENDCHAR
STARTCHAR 00A3
ENCODING 163
SWIDTH 480 0
DWIDTH 8 0
BBX 8 16 0 -2
BITMAP
00
00
36
36
00
00
3e
63
63
7f
60
60
63
3e
00
00
ENDCHAR
STARTCHAR 00B3
ENCODING 179
SWIDTH 480 0
DWIDTH 8 0
BBX 8 16 0 -2
BITMAP
36
36
00
00
7f
60
60
60
7e
60
60
60
60
7f
00
00
ENDCHAR
STARTCHAR 00C0
ENCODING 192
SWIDTH 480 0
DWIDTH 8 0
BBX 8 16 0 -2
BITMAP
00
00
00
00
00
00
66
6b
6b
7b
6b
6b
6b
66
00
00
ENDCHAR
STARTCHAR 00C1
ENCODING 193
SWIDTH 480 0
DWIDTH 8 0
BBX 8 16 0 -2
BITMAP
00
00
00
00
00
00
3e
63
03
3f
63
63
67
3b
00
00
ENDCHAR
STARTCHAR 00C2
ENCODING 194
SWIDTH 480 0
DWIDTH 8 0
BBX 8 16 0 -2
BITMAP
00
00
00
00
00
03
3e
60
60
7e
63
63
63
3e
00
00
ENDCHAR
STARTCHAR 00C3
ENCODING 195
SWIDTH 480 0
DWIDTH 8 0
BBX 8 16 0 -2
BITMAP
00
00
00
00
00
00
66
66
66
66
66
66
66
7f
03
06
ENDCHAR
STARTCHAR 00C4
ENCODING 196
SWIDTH 480 0
DWIDTH 8 0
BBX 9 16 0 -2
BITMAP
0000
0000
0000
0000
0000
0000
0f00
1b00
1b00
1b00
3300
3300
3300
7f80
6180
0000
ENDCHAR
STARTCHAR 00C5
ENCODING 197
SWIDTH 480 0
DWIDTH 8 0
BBX 8 16 0 -2
BITMAP
00
00
00
00
00
00
3e
63
63
7f
60
60
63
3e
00
00
ENDCHAR
STARTCHAR 00C6
ENCODING 198
SWIDTH 480 0
DWIDTH 8 0
BBX 9 16 0 -2
BITMAP
0000
0000
0000
0000
0000
0000
0c00
3f00
6d80
4c80
4c80
6d80
3f00
0c00
0c00
0000
ENDCHAR
STARTCHAR 00C7
ENCODING 199
SWIDTH 480 0
DWIDTH 8 0
BBX 8 16 0 -2
BITMAP
00
00
00
00
00
00
7e
60
60
60
60
60
60
60
00
00
ENDCHAR
STARTCHAR 00C8
ENCODING 200
SWIDTH 480 0
DWIDTH 8 0
BBX 8 16 0 -2
BITMAP
00
00
00
00
00
00
63
63
36
1c
1c
36
63
63
00
00
ENDCHAR
STARTCHAR 00C9
ENCODING 201
SWIDTH 480 0
DWIDTH 8 0
BBX 8 16 0 -2
BITMAP
00
00
00
00
00
00
67
67
6b
6b
73
73
63
63
00
00
ENDCHAR
STARTCHAR 00CA
ENCODING 202
SWIDTH 480 0
DWIDTH 8 0
BBX 8 16 0 -2
BITMAP
00
63
63
3e
00
00
67
67
6b
6b
73
73
63
63
00
00
ENDCHAR
STARTCHAR 00CB
ENCODING 203
SWIDTH 480 0
DWIDTH 8 0
BBX 8 16 0 -2
BITMAP
00
00
00
00
00
00
67
6c
78
70
78
6c
66
63
00
00
ENDCHAR
STARTCHAR 00CC
ENCODING 204
SWIDTH 480 0
DWIDTH 8 0
BBX 8 16 0 -2
BITMAP
00
00
00
00
00
00
1f
1b
1b
1b
1b
33
33
63
00
00
ENDCHAR
STARTCHAR 00CD
ENCODING 205
SWIDTH 480 0
DWIDTH 8 0
BBX 8 16 0 -2
BITMAP
00
00
00
00
00
00
63
77
77
7f
6b
63
63
63
00
00
ENDCHAR
STARTCHAR 00CE
ENCODING 206
SWIDTH 480 0
DWIDTH 8 0
BBX 8 16 0 -2
BITMAP
00
00
00
00
00
00
63
63
63
7f
63
63
63
63
00
00
ENDCHAR
STARTCHAR 00CF
ENCODING 207
SWIDTH 480 0
DWIDTH 8 0
BBX 8 16 0 -2
BITMAP
00
00
00
00
00
00
3e
63
63
63
63
63
63
3e
00
00
ENDCHAR
STARTCHAR 00D0
ENCODING 208
SWIDTH 480 0
DWIDTH 8 0
BBX 8 16 0 -2
BITMAP
00
00
00
00
00
00
7f
63
63
63
63
63
63
63
00
00
ENDCHAR
STARTCHAR 00D1
ENCODING 209
SWIDTH 480 0
DWIDTH 8 0
BBX 8 16 0 -2
BITMAP
00
00
00
00
00
00
3f
63
63
63
3f
1b
33
63
00
00
ENDCHAR
STARTCHAR 00D2
ENCODING 210
SWIDTH 480 0
DWIDTH 8 0
BBX 8 16 0 -2
BITMAP
00
00
00
00
00
00
6e
73
63
63
63
63
73
6e
60
60
ENDCHAR
STARTCHAR 00D3
ENCODING 211
SWIDTH 480 0
DWIDTH 8 0
BBX 8 16 0 -2
BITMAP
00
00
00
00
00
00
3e
63
60
60
60
60
63
3e
00
00
ENDCHAR
STARTCHAR 00D4
ENCODING 212
SWIDTH 480 0
DWIDTH 8 0
BBX 9 16 0 -2
BITMAP
0000
0000
0000
0000
0000
0000
7f80
0c00
0c00
0c00
0c00
0c00
0c00
0c00
0000
0000
ENDCHAR
STARTCHAR 00D5
ENCODING 213
SWIDTH 480 0
DWIDTH 8 0
BBX 8 16 0 -2
BITMAP
00
00
00
00
00
00
63
63
36
36
1c
1c
18
18
30
70
ENDCHAR
STARTCHAR 00D6
ENCODING 214
SWIDTH 480 0
DWIDTH 8 0
BBX 9 16 0 -2
BITMAP
0000
0000
0000
0000
0000
0000
6d80
6d80
2d00
1e00
1e00
2d00
6d80
6d80
0000
0000
ENDCHAR
STARTCHAR 00D7
ENCODING 215
SWIDTH 480 0
DWIDTH 8 0
BBX 8 16 0 -2
BITMAP
00
00
00
00
00
00
7e
63
63
7e
63
63
63
7e
00
00
ENDCHAR
STARTCHAR 00D8
ENCODING 216
SWIDTH 480 0
DWIDTH 8 0
BBX 8 16 0 -2
BITMAP
00
00
00
00
00
00
60
60
60
7e
63
63
63
7e
00
00
ENDCHAR
STARTCHAR 00D9
ENCODING 217
SWIDTH 480 0
DWIDTH 8 0
BBX 8 16 0 -2
BITMAP
00
00
00
00
00
00
63
63
63
73
6b
6b
6b
73
00
00
ENDCHAR
STARTCHAR 00DA
ENCODING 218
SWIDTH 480 0
DWIDTH 8 0
BBX 8 16 0 -2
BITMAP
00
00
00
00
00
00
3e
63
03
0e
0e
03
63
3e
00
00
ENDCHAR
STARTCHAR 00DB
ENCODING 219
SWIDTH 480 0
DWIDTH 8 0
BBX 9 16 0 -2
BITMAP
0000
0000
0000
0000
0000
0000
6d80
6d80
6d80
6d80
6d80
6d80
6d80
7f80
0000
0000
ENDCHAR
STARTCHAR 00DC
ENCODING 220
SWIDTH 480 0
DWIDTH 8 0
BBX 8 16 0 -2
BITMAP
00
00
00
00
00
00
3c
66
03
3f
03
03
66
3c
00
00
ENDCHAR
STARTCHAR 00DD
ENCODING 221
SWIDTH 480 0
DWIDTH 8 0
BBX 9 16 0 -2
BITMAP
0000
0000
0000
0000
0000
0000
db00
db00
db00
db00
db00
db00
db00
ff80
0180
0300
ENDCHAR
STARTCHAR 00DE
ENCODING 222
SWIDTH 480 0
DWIDTH 8 0
BBX 8 16 0 -2
BITMAP
00
00
00
00
00
00
63
63
63
63
67
3f
03
03
00
00
ENDCHAR
STARTCHAR 00DF
ENCODING 223
SWIDTH 480 0
DWIDTH 8 0
BBX 9 16 0 -2
BITMAP
0000
0000
0000
0000
0000
0000
7800
5800
1800
1f00
1980
1980
1b80
1f00
0000
0000
ENDCHAR
STARTCHAR 00E0
ENCODING 224
SWIDTH 480 0
DWIDTH 8 0
BBX 8 16 0 -2
BITMAP
00
00
00
00
6e
6b
6b
6b
7b
6b
6b
6b
6b
6e
00
00
ENDCHAR
STARTCHAR 00E1
ENCODING 225
SWIDTH 480 0
DWIDTH 8 0
BBX 8 16 0 -2
BITMAP
00
00
00
00
1c
1c
36
36
63
63
7f
63
63
63
00
00
ENDCHAR
STARTCHAR 00E2
ENCODING 226
SWIDTH 480 0
DWIDTH 8 0
BBX 8 16 0 -2
BITMAP
00
00
00
00
7e
60
60
60
7e
63
63
63
63
7e
00
00
ENDCHAR
STARTCHAR 00E3
ENCODING 227
SWIDTH 480 0
DWIDTH 8 0
BBX 9 16 0 -2
BITMAP
0000
0000
0000
0000
6300
6300
6300
6300
6300
6300
6300
6300
6300
7f80
0180
0300
ENDCHAR
STARTCHAR 00E4
ENCODING 228
SWIDTH 480 0
DWIDTH 8 0
BBX 9 16 0 -2
BITMAP
0000
0000
0000
0000
0f00
1b00
1b00
1b00
3300
3300
3300
6300
6300
ff80
c180
0000
ENDCHAR
STARTCHAR 00E5
ENCODING 229
SWIDTH 480 0
DWIDTH 8 0
BBX 8 16 0 -2
BITMAP
00
00
00
00
7f
61
60
60
7e
60
60
60
61
7f
00
00
ENDCHAR
STARTCHAR 00E6
ENCODING 230
SWIDTH 480 0
DWIDTH 8 0
BBX 9 16 0 -2
BITMAP
0000
0000
0000
0c00
0c00
3f00
6d80
6d80
6d80
6d80
6d80
3f00
0c00
0c00
0000
0000
ENDCHAR
STARTCHAR 00E7
ENCODING 231
SWIDTH 480 0
DWIDTH 8 0
BBX 8 16 0 -2
BITMAP
00
00
00
00
7f
60
60
60
60
60
60
60
60
60
00
00
ENDCHAR
STARTCHAR 00E8
ENCODING 232
SWIDTH 480 0
DWIDTH 8 0
BBX 8 16 0 -2
BITMAP
00
00
00
00
63
63
36
36
1c
1c
36
36
63
63
00
00
ENDCHAR
STARTCHAR 00E9
ENCODING 233
SWIDTH 480 0
DWIDTH 8 0
BBX 8 16 0 -2
BITMAP
00
00
00
00
63
67
67
6f
6b
7b
7b
73
63
63
00
00
ENDCHAR
STARTCHAR 00EA
ENCODING 234
SWIDTH 480 0
DWIDTH 8 0
BBX 8 16 0 -2
BITMAP
63
63
3e
00
63
67
67
6f
6f
7b
7b
73
63
63
00
00
ENDCHAR
STARTCHAR 00EB
ENCODING 235
SWIDTH 480 0
DWIDTH 8 0
BBX 8 16 0 -2
BITMAP
00
00
00
00
63
66
6c
78
70
60
78
6c
66
63
00
00
ENDCHAR
STARTCHAR 00EC
ENCODING 236
SWIDTH 480 0
DWIDTH 8 0
BBX 8 16 0 -2
BITMAP
00
00
00
00
0f
1b
1b
1b
1b
1b
1b
33
33
63
00
00
ENDCHAR
STARTCHAR 00ED
ENCODING 237
SWIDTH 480 0
DWIDTH 8 0
BBX 8 16 0 -2
BITMAP
00
00
00
00
63
63
77
77
7f
6b
63
63
63
63
00
00
ENDCHAR
STARTCHAR 00EE
ENCODING 238
SWIDTH 480 0
DWIDTH 8 0
BBX 8 16 0 -2
BITMAP
00
00
00
00
63
63
63
63
7f
63
63
63
63
63
00
00
ENDCHAR
STARTCHAR 00EF
ENCODING 239
SWIDTH 480 0
DWIDTH 8 0
BBX 8 16 0 -2
BITMAP
00
00
00
00
3e
63
63
63
63
63
63
63
63
3e
00
00
ENDCHAR
STARTCHAR 00F0
ENCODING 240
SWIDTH 480 0
DWIDTH 8 0
BBX 8 16 0 -2
BITMAP
00
00
00
00
7f
63
63
63
63
63
63
63
63
63
00
00
ENDCHAR
STARTCHAR 00F1
ENCODING 241
SWIDTH 480 0
DWIDTH 8 0
BBX 8 16 0 -2
BITMAP
00
00
00
00
3f
63
63
63
63
3f
33
33
63
63
00
00
ENDCHAR
STARTCHAR 00F2
ENCODING 242
SWIDTH 480 0
DWIDTH 8 0
BBX 8 16 0 -2
BITMAP
00
00
00
00
7e
63
63
63
63
7e
60
60
60
60
00
00
ENDCHAR
STARTCHAR 00F3
ENCODING 243
SWIDTH 480 0
DWIDTH 8 0
BBX 8 16 0 -2
BITMAP
00
00
00
00
3e
63
63
60
60
60
60
63
63
3e
00
00
ENDCHAR
STARTCHAR 00F4
ENCODING 244
SWIDTH 480 0
DWIDTH 8 0
BBX 9 16 0 -2
BITMAP
0000
0000
0000
0000
7f80
0c00
0c00
0c00
0c00
0c00
0c00
0c00
0c00
0c00
0000
0000
ENDCHAR
STARTCHAR 00F5
ENCODING 245
SWIDTH 480 0
DWIDTH 8 0
BBX 9 16 0 -2
BITMAP
0000
0000
0000
0000
6180
6180
3300
3300
1e00
1e00
0c00
0c00
1800
3800
0000
0000
ENDCHAR
STARTCHAR 00F6
ENCODING 246
SWIDTH 480 0
DWIDTH 8 0
BBX 9 16 0 -2
BITMAP
0000
0000
0000
0000
6d80
6d80
2d00
3f00
1e00
1e00
3f00
3f00
6d80
6d80
0000
0000
ENDCHAR
STARTCHAR 00F7
ENCODING 247
SWIDTH 480 0
DWIDTH 8 0
BBX 8 16 0 -2
BITMAP
00
00
00
00
7e
63
63
63
7e
63
63
63
63
7e
00
00
ENDCHAR
STARTCHAR 00F8
ENCODING 248
SWIDTH 480 0
DWIDTH 8 0
BBX 8 16 0 -2
BITMAP
00
00
00
00
60
60
60
60
7e
63
63
63
63
7e
00
00
ENDCHAR
STARTCHAR 00F9
ENCODING 249
SWIDTH 480 0
DWIDTH 8 0
BBX 9 16 0 -2
BITMAP
0000
0000
0000
0000
6180
6180
6180
6180
7980
6d80
6d80
6d80
6d80
7980
0000
0000
ENDCHAR
STARTCHAR 00FA
ENCODING 250
SWIDTH 480 0
DWIDTH 8 0
BBX 8 16 0 -2
BITMAP
00
00
00
00
3e
63
03
03
1e
03
03
03
63
3e
00
00
ENDCHAR
STARTCHAR 00FB
ENCODING 251
SWIDTH 480 0
DWIDTH 8 0
BBX 9 16 0 -2
BITMAP
0000
0000
0000
0000
6d80
6d80
6d80
6d80
6d80
6d80
6d80
6d80
6d80
7f80
0000
0000
ENDCHAR
STARTCHAR 00FC
ENCODING 252
SWIDTH 480 0
DWIDTH 8 0
BBX 8 16 0 -2
BITMAP
00
00
00
00
3c
66
03
03
3f
03
03
03
66
3c
00
00
ENDCHAR
STARTCHAR 00FD
ENCODING 253
SWIDTH 480 0
DWIDTH 8 0
BBX 9 16 0 -2
BITMAP
0000
0000
0000
0000
db00
db00
db00
db00
db00
db00
db00
db00
db00
ff80
0180
0300
ENDCHAR
STARTCHAR 00FE
ENCODING 254
SWIDTH 480 0
DWIDTH 8 0
BBX 8 16 0 -2
BITMAP
00
00
00
00
63
63
63
63
63
63
3f
03
03
03
00
00
ENDCHAR
STARTCHAR 00FF
ENCODING 255
SWIDTH 480 0
DWIDTH 8 0
BBX 9 16 0 -2
BITMAP
0000
0000
0000
0000
7800
5800
1800
1800
1f00
1980
1980
1980
1980
1f00
0000
0000
ENDCHAR
ENDFONT
